<?xml version="1.0" standalone="no"?>
<!DOCTYPE svg PUBLIC "-//W3C//DTD SVG 20010904//EN"
 "http://www.w3.org/TR/2001/REC-SVG-20010904/DTD/svg10.dtd">
<svg version="1.0" xmlns="http://www.w3.org/2000/svg"
 width="300.000000pt" height="300.000000pt" viewBox="0 0 300.000000 300.000000"
 preserveAspectRatio="xMidYMid meet">
<metadata>
Created by potrace 1.10, written by Peter Selinger 2001-2011
</metadata>
<g transform="translate(0.000000,300.000000) scale(0.100000,-0.100000)"
fill="#000000" stroke="none">
<path d="M1470 2604 c-36 -20 -85 -48 -110 -64 -25 -15 -121 -72 -215 -125
-214 -123 -253 -150 -261 -180 -5 -19 -10 -23 -22 -16 -32 18 -132 -43 -132
-80 0 -17 -5 -19 -32 -14 -40 7 -96 -21 -118 -58 -14 -25 -13 -28 29 -70 40
-42 41 -44 17 -40 -46 9 -66 -20 -66 -96 0 -62 2 -67 37 -103 32 -33 34 -38
17 -38 -36 0 -54 -31 -54 -94 0 -43 5 -64 22 -86 l22 -30 -22 -23 c-17 -18
-22 -35 -22 -80 0 -49 4 -61 31 -92 20 -23 26 -35 17 -35 -33 0 -48 -35 -48
-108 0 -61 3 -74 26 -101 l26 -31 -26 -21 c-23 -18 -26 -27 -26 -84 0 -52 4
-69 23 -89 27 -32 334 -206 361 -206 11 0 27 7 37 16 16 14 18 13 24 -14 7
-36 48 -76 96 -96 31 -13 39 -13 56 -1 22 16 33 11 33 -15 0 -22 47 -66 91
-84 32 -13 38 -13 57 0 19 13 22 13 22 0 0 -39 145 -146 199 -146 12 0 80 34
152 76 124 74 179 119 179 150 0 17 5 17 29 2 42 -26 151 55 151 111 l0 22 26
-20 c21 -16 30 -18 52 -10 58 22 337 186 365 215 l30 31 -1 188 c-2 187 -2
189 -27 215 l-25 26 25 24 c21 20 25 32 25 81 0 47 -4 62 -22 79 l-22 20 24
32 c44 59 21 178 -34 178 -18 0 -17 4 17 36 36 34 37 37 37 104 0 62 -3 71
-24 85 -18 12 -30 13 -50 6 -17 -7 -26 -7 -26 -1 0 6 4 10 10 10 20 0 80 63
80 84 0 42 -77 92 -123 81 -17 -5 -25 1 -35 24 -18 40 -74 74 -112 69 -22 -3
-31 0 -35 12 -9 30 -47 57 -215 156 -350 206 -435 254 -455 254 -11 0 -49 -17
-85 -36z m453 -209 c152 -88 276 -162 277 -165 0 -3 -13 -14 -29 -23 l-30 -17
-291 165 c-159 91 -292 165 -295 165 -6 0 -557 -310 -572 -322 -11 -9 -73 18
-73 32 0 3 17 15 38 27 20 11 165 95 322 186 l285 166 46 -27 c25 -15 170 -99
322 -187z m-113 -100 c140 -80 258 -145 262 -145 17 0 6 -16 -22 -32 l-30 -17
-231 129 c-127 72 -233 130 -235 130 -2 0 -99 -53 -216 -118 -117 -66 -222
-124 -233 -130 -17 -8 -28 -6 -53 10 l-33 20 133 73 c73 40 192 106 263 148
72 41 132 75 135 76 3 1 120 -64 260 -144z m-140 -85 c23 -16 23 -16 -45 -58
l-67 -43 -75 44 -75 44 74 40 73 41 46 -27 c25 -14 56 -33 69 -41z m-280 -4
c0 -8 3 -21 6 -30 8 -21 -16 -21 -42 -1 -19 15 -19 15 0 30 25 19 36 19 36 1z
m380 -17 c0 -7 -51 -31 -57 -26 -2 2 1 16 7 31 9 23 12 25 30 14 11 -7 20 -16
20 -19z m-667 -182 c429 -300 448 -312 463 -301 14 9 453 313 618 427 l83 57
41 -22 c23 -13 42 -25 42 -28 0 -3 -64 -45 -143 -94 -78 -50 -254 -164 -392
-254 -137 -91 -254 -165 -260 -165 -5 0 -127 76 -270 170 -143 93 -320 207
-392 254 -73 46 -133 86 -133 89 0 4 69 48 78 50 1 0 120 -82 265 -183z m334
78 c59 -36 111 -65 114 -65 4 0 57 30 118 66 l111 65 90 -48 c49 -26 90 -51
90 -54 0 -4 -14 -12 -31 -19 -31 -13 -45 -9 -131 44 -13 7 -41 -5 -128 -57
-61 -37 -114 -67 -117 -67 -3 0 -54 29 -114 65 l-108 66 -35 -18 -35 -18 146
-91 145 -92 72 48 c39 26 89 57 111 70 40 23 42 23 68 5 16 -10 24 -21 20 -25
-4 -4 -66 -46 -136 -93 l-129 -85 -171 110 c-95 61 -190 122 -211 135 l-39 25
89 49 c49 27 92 49 96 49 4 0 55 -29 115 -65z m-525 -132 c128 -80 325 -204
438 -276 155 -98 209 -126 220 -119 8 5 159 101 335 212 176 111 365 230 420
265 l100 64 35 -21 c19 -12 39 -24 43 -28 5 -4 -24 -28 -65 -52 -596 -366
-884 -538 -893 -534 -10 4 -713 432 -883 538 l-73 46 43 25 c24 14 44 25 45
26 2 1 108 -65 235 -146z m-132 -131 l175 -109 3 -522 c1 -286 0 -521 -3 -521
-6 0 -268 149 -327 187 -37 23 -38 25 -38 83 0 33 3 60 6 60 3 0 60 -33 127
-72 67 -40 125 -74 130 -76 4 -2 7 77 7 175 l-1 178 -131 75 -131 75 -3 63 -3
62 47 -27 c26 -15 86 -51 135 -79 l87 -52 0 161 0 162 -133 77 -132 77 -1 70
c0 38 2 68 5 66 3 -2 85 -53 181 -113z m1730 44 l0 -65 -119 -70 c-66 -39
-131 -76 -145 -82 -21 -10 -25 -19 -28 -65 -1 -30 -1 -54 1 -54 2 0 66 36 142
80 76 44 140 80 143 80 3 0 6 -26 6 -59 l0 -58 -142 -80 -143 -80 -5 -46 c-3
-26 -5 -47 -5 -47 1 0 66 36 145 80 79 44 145 80 147 80 1 0 3 -27 3 -59 l0
-59 -195 -106 c-107 -58 -197 -106 -200 -106 -3 0 -5 123 -5 273 l0 272 193
117 c105 64 195 117 200 117 4 1 7 -28 7 -63z m-1475 -142 c56 -37 67 -48 40
-38 -8 4 -26 -1 -40 -10 -31 -21 -35 -20 -35 4 0 12 -7 34 -15 50 -9 17 -13
30 -10 30 3 0 30 -16 60 -36z m1056 -7 c-6 -6 -11 -21 -11 -33 0 -12 -3 -30
-6 -39 -6 -14 -9 -14 -28 3 -11 11 -29 22 -39 24 -13 2 -5 11 30 34 44 29 79
36 54 11z m-1406 -77 l83 -50 4 -57 c3 -32 4 -60 2 -62 -1 -2 -42 19 -90 47
l-87 50 -2 61 c-1 33 0 61 2 61 3 0 42 -22 88 -50z m613 -134 l212 -128 0
-442 0 -443 23 -12 c19 -10 34 -5 119 41 l98 53 0 392 0 392 -32 -21 -33 -22
3 -341 3 -341 -48 -24 c-26 -14 -51 -26 -55 -28 -5 -2 -8 176 -8 395 l1 398
217 130 c119 72 220 132 224 133 5 2 8 -228 8 -512 l0 -516 -41 -25 c-22 -15
-46 -28 -52 -31 -9 -3 -11 106 -9 451 l3 456 -38 -24 -38 -24 -3 -454 -2 -454
-139 -82 c-77 -45 -143 -84 -148 -85 -6 -2 -44 17 -86 41 l-77 43 0 347 0 346
-122 70 c-68 39 -125 71 -128 73 -3 1 -4 -156 -2 -348 l3 -351 -53 30 -53 31
0 519 c0 518 0 520 20 507 11 -7 116 -70 233 -140z m-488 -66 c0 -19 -5 -30
-14 -30 -24 0 -29 20 -10 41 23 25 24 24 24 -11z m757 -24 c1 -1 -2 -8 -7 -16
-8 -13 -13 -11 -32 8 l-23 23 30 -7 c17 -4 31 -7 32 -8z m942 -349 l-3 -192
-195 -111 -196 -112 -3 151 c-1 82 0 152 2 155 3 3 27 -4 53 -15 46 -18 48
-22 51 -61 l3 -43 27 19 c15 11 55 34 90 51 l62 31 0 133 0 132 48 27 c26 15
51 28 55 28 4 0 7 -87 6 -193z m-1821 132 l87 -51 0 -73 0 -74 -55 31 c-131
75 -123 66 -126 146 -1 40 0 72 2 72 3 0 44 -23 92 -51z m1682 22 c-5 -11 -10
-29 -10 -40 0 -25 -8 -26 -32 -4 -24 22 -23 30 10 47 37 20 45 20 32 -3z
m-1151 -50 c12 -8 12 -12 2 -25 -19 -23 -31 -20 -31 9 0 27 6 30 29 16z m1096
-101 c0 -49 -2 -90 -5 -90 -3 0 -47 17 -98 39 l-94 38 94 51 c51 28 95 51 98
51 3 1 5 -39 5 -89z m-210 60 c16 -17 16 -24 5 -44 -13 -25 -11 -36 12 -69 11
-15 10 -20 -4 -28 -9 -5 -24 -16 -33 -25 -13 -14 -15 -6 -15 85 0 56 4 101 8
101 5 0 17 -9 27 -20z m-826 -41 l51 -32 0 -299 0 -298 -51 29 -50 28 -2 302
c-1 165 -1 301 0 301 1 0 24 -14 52 -31z m-473 -146 c-7 -7 -65 17 -73 30 -4
6 0 8 11 4 10 -4 27 0 39 8 21 15 22 14 25 -11 2 -14 1 -28 -2 -31z m1483 1
c3 -2 -1 -10 -7 -16 -10 -10 -17 -7 -35 11 l-22 23 30 -7 c16 -3 32 -9 34 -11z
m-708 -390 c10 -13 10 -17 -1 -24 -18 -11 -30 -3 -30 21 0 23 13 25 31 3z"/>
<path d="M1150 1425 l5 -45 124 -75 c68 -41 125 -74 126 -73 1 2 0 23 -3 48
l-4 45 -120 70 c-66 39 -123 71 -127 73 -4 1 -4 -18 -1 -43z"/>
</g>
</svg>
